<?xml version="1.0" encoding="UTF-8"?>
<svg xmlns="http://www.w3.org/2000/svg" viewBox="0 0 512 512" width="512" height="512">
  <defs>
    <linearGradient id="bg" x1="0" y1="0" x2="1" y2="1"><stop offset="0%" stop-color="#F7D9B6"/><stop offset="50%" stop-color="#F4C7CB"/><stop offset="100%" stop-color="#DCCAE6"/></linearGradient>
  </defs>
  <rect width="512" height="512" fill="url(#bg)"/>
  <g transform="translate(110.31 294.05) scale(0.3313)">
    <path d="M112.50-121.11Q112.68-120.76 115.14-118.74Q117.60-116.72 122.08-114.26Q126.56-111.80 133.07-109.86Q139.57-107.93 147.83-107.93Q161.72-107.93 174.02-113.20Q186.33-118.48 196.79-127.09Q207.25-135.70 215.60-146.78Q223.95-157.85 229.75-169.45Q235.55-181.05 238.71-192.30Q241.88-203.55 241.88-212.52Q241.88-223.24 238.71-231.15Q235.55-239.06 230.19-244.16Q224.82-249.26 217.53-251.72Q210.23-254.18 201.80-254.18Q185.10-254.18 168.66-248.29Q152.23-242.40 136.76-232.21Q121.29-222.01 107.05-208.21Q92.81-194.41 80.51-178.59Q68.20-162.77 58.18-145.63Q48.16-128.50 41.04-111.62Q33.93-94.75 30.06-78.84Q26.19-62.93 26.19-49.57Q26.19-34.10 30.67-20.39Q35.16-6.68 44.12 3.52Q53.09 13.71 66.53 19.60Q79.98 25.49 97.91 25.49Q113.91 25.49 131.13 20.57Q148.36 15.64 165.50 4.75Q182.64-6.15 199.34-23.47Q216.04-40.78 231.33-65.57L237.66-60.64Q221.13-33.75 203.20-15.47Q185.27 2.81 167.34 13.97Q149.41 25.14 132.01 29.97Q114.61 34.80 98.96 34.80Q76.46 34.80 59.24 26.81Q42.01 18.81 30.41 5.80Q18.81-7.21 12.92-23.82Q7.03-40.43 7.03-57.66Q7.03-72.42 11.16-89.12Q15.29-105.82 22.85-123.05Q30.41-140.27 41.04-157.50Q51.68-174.73 64.78-190.46Q77.87-206.19 93.16-219.73Q108.46-233.26 125.24-243.19Q142.03-253.12 159.87-258.84Q177.71-264.55 196.17-264.55Q207.77-264.55 218.41-261.30Q229.04-258.05 237.13-251.02Q245.21-243.98 249.96-233Q254.71-222.01 254.71-206.54Q254.71-196.17 251.54-184.04Q248.38-171.91 242.31-159.70Q236.25-147.48 227.55-136.05Q218.85-124.63 207.86-115.93Q196.88-107.23 183.60-101.95Q170.33-96.68 155.39-96.68Q139.39-96.68 127.53-102.04Q115.66-107.40 107.23-115.31L112.50-121.11M357.89-121.11Q358.07-120.76 360.53-118.74Q362.99-116.72 367.47-114.26Q371.95-111.80 378.46-109.86Q384.96-107.93 393.22-107.93Q407.11-107.93 419.41-113.20Q431.72-118.48 442.18-127.09Q452.64-135.70 460.99-146.78Q469.34-157.85 475.14-169.45Q480.94-181.05 484.10-192.30Q487.27-203.55 487.27-212.52Q487.27-223.24 484.10-231.15Q480.94-239.06 475.58-244.16Q470.21-249.26 462.92-251.72Q455.63-254.18 447.19-254.18Q430.49-254.18 414.05-248.29Q397.62-242.40 382.15-232.21Q366.68-222.01 352.44-208.21Q338.20-194.41 325.90-178.59Q313.59-162.77 303.57-145.63Q293.55-128.50 286.44-111.62Q279.32-94.75 275.45-78.84Q271.58-62.93 271.58-49.57Q271.58-34.10 276.06-20.39Q280.55-6.68 289.51 3.52Q298.48 13.71 311.92 19.60Q325.37 25.49 343.30 25.49Q359.30 25.49 376.52 20.57Q393.75 15.64 410.89 4.75Q428.03-6.15 444.73-23.47Q461.43-40.78 476.72-65.57L483.05-60.64Q466.52-33.75 448.59-15.47Q430.66 2.81 412.73 13.97Q394.80 25.14 377.40 29.97Q360 34.80 344.36 34.80Q321.86 34.80 304.63 26.81Q287.40 18.81 275.80 5.80Q264.20-7.21 258.31-23.82Q252.42-40.43 252.42-57.66Q252.42-72.42 256.55-89.12Q260.68-105.82 268.24-123.05Q275.80-140.27 286.44-157.50Q297.07-174.73 310.17-190.46Q323.26-206.19 338.55-219.73Q353.85-233.26 370.63-243.19Q387.42-253.12 405.26-258.84Q423.11-264.55 441.56-264.55Q453.16-264.55 463.80-261.30Q474.43-258.05 482.52-251.02Q490.61-243.98 495.35-233Q500.10-222.01 500.10-206.54Q500.10-196.17 496.93-184.04Q493.77-171.91 487.71-159.70Q481.64-147.48 472.94-136.05Q464.24-124.63 453.25-115.93Q442.27-107.23 428.99-101.95Q415.72-96.68 400.78-96.68Q384.79-96.68 372.92-102.04Q361.05-107.40 352.62-115.31L357.89-121.11M872.58-219.37Q872.58-208.12 868.18-196Q863.79-183.87 855.35-172.09Q846.91-160.31 834.52-149.41Q822.13-138.52 806.04-129.64Q789.96-120.76 770.45-114.43Q750.94-108.11 728.26-105.47Q718.95-88.42 708.93-71.63Q698.91-54.84 687.66-39.64Q676.41-24.43 663.84-11.51Q651.27 1.41 636.94 10.90Q622.62 20.39 606.18 25.75Q589.75 31.11 570.94 31.11Q555.47 31.11 540.97 26.63Q526.46 22.15 515.30 13.62Q504.14 5.10 497.46-7.21Q490.78-19.51 490.78-35.33Q490.78-52.38 497.02-65.04Q503.26-77.70 513.54-86.13Q523.83-94.57 536.84-98.70Q549.84-102.83 563.38-102.83Q573.75-102.83 583.86-100.81Q593.96-98.79 603.19-95.10Q612.42-91.41 620.42-86.31Q628.42-81.21 634.57-75.06L629.30-69.43Q625.08-73.48 619.37-77.17Q613.65-80.86 606.27-83.76Q598.89-86.66 590.10-88.33Q581.31-90 571.11-90Q559.34-90 548.26-86.04Q537.19-82.09 528.57-74.62Q519.96-67.15 514.69-56.34Q509.41-45.53 509.41-31.64Q509.41-20.39 513.90-10.63Q518.38-0.88 526.55 6.24Q534.73 13.36 545.89 17.40Q557.05 21.45 570.59 21.45Q586.05 21.45 599.68 16.61Q613.30 11.78 625.17 3.25Q637.03-5.27 647.67-17.05Q658.30-28.83 667.88-42.80Q677.46-56.78 686.25-72.25Q695.04-87.71 703.65-103.89L698.91-103.89Q669.38-103.89 645.73-109.95Q622.09-116.02 605.48-126.56Q588.87-137.11 579.99-151.26Q571.11-165.41 571.11-181.76Q571.11-198.11 577.44-210.59Q583.77-223.07 594.67-231.50Q605.57-239.94 619.98-244.25Q634.39-248.55 650.57-248.55Q664.45-248.55 676.05-246.36Q687.66-244.16 696.88-240.73Q706.11-237.30 713.23-233.26Q720.35-229.22 725.27-225.53Q730.20-221.84 733.01-219.02Q735.82-216.21 736.70-215.33L730.72-210.06Q730.55-210.23 725.63-214.54Q720.70-218.85 711.74-224.03Q702.77-229.22 690.12-233.53Q677.46-237.83 661.99-237.83Q646.35-237.83 633.25-233.44Q620.16-229.04 610.66-221.22Q601.17-213.40 595.81-202.68Q590.45-191.95 590.45-179.30Q590.45-164.36 598.71-152.14Q606.97-139.92 621.65-131.22Q636.33-122.52 656.28-117.69Q676.23-112.85 699.79-112.85L708.22-112.85Q717.36-130.25 726.42-147.39Q735.47-164.53 744.96-180.09Q754.45-195.64 764.65-209Q774.84-222.36 786.27-232.12Q797.70-241.87 810.70-247.41Q823.71-252.95 838.65-252.95Q844.80-252.95 850.87-251.28Q856.93-249.61 861.77-245.65Q866.60-241.70 869.59-235.28Q872.58-228.87 872.58-219.37M842.34-243.46Q831.27-243.46 821.25-238.54Q811.23-233.61 802.09-224.74Q792.95-215.86 784.34-203.82Q775.72-191.78 767.37-177.45Q759.02-163.12 750.59-147.22Q742.15-131.31 733.36-114.96Q756.21-117.95 774.84-124.63Q793.48-131.31 807.89-140.19Q822.30-149.06 832.85-159.43Q843.40-169.80 850.25-180.18Q857.11-190.55 860.36-200.13Q863.61-209.71 863.61-217.27Q863.61-222.89 862.47-227.64Q861.33-232.38 858.87-235.90Q856.41-239.41 852.36-241.44Q848.32-243.46 842.34-243.46" fill="#5b3a45"/>
  </g>
</svg>