<?xml version="1.0" encoding="UTF-8"?>
<svg xmlns="http://www.w3.org/2000/svg" viewBox="0 0 1200 630" width="1200" height="630">
  <defs>
    <linearGradient id="bg" x1="0" y1="0" x2="1" y2="1">
      <stop offset="0%" stop-color="#FBF6F0"/>
      <stop offset="55%" stop-color="#F7E4DE"/>
      <stop offset="100%" stop-color="#E9D7E7"/>
    </linearGradient>
    <linearGradient id="badge" x1="0" y1="0" x2="1" y2="1">
      <stop offset="0%" stop-color="#F7D9B6"/>
      <stop offset="50%" stop-color="#F4C7CB"/>
      <stop offset="100%" stop-color="#DCCAE6"/>
    </linearGradient>
    <pattern id="aida" width="28" height="28" patternUnits="userSpaceOnUse">
      <rect width="28" height="28" fill="none"/>
      <path d="M0 0H28M0 28H28M0 0V28M28 0V28" stroke="rgba(197,138,149,0.18)" stroke-width="1"/>
    </pattern>
    <filter id="soft" x="-10%" y="-10%" width="120%" height="120%">
      <feGaussianBlur in="SourceGraphic" stdDeviation="14"/>
    </filter>
  </defs>

  <rect width="1200" height="630" fill="url(#bg)"/>
  <circle cx="180" cy="120" r="200" fill="#F7D9B6" opacity="0.45" filter="url(#soft)"/>
  <circle cx="1060" cy="540" r="220" fill="#DCCAE6" opacity="0.55" filter="url(#soft)"/>
  <rect width="1200" height="630" fill="url(#aida)"/>

  <g>
    <rect x="80" y="80" width="120" height="120" rx="28" fill="url(#badge)"/>
    <g transform="translate(97.32 151.15) scale(0.4479)">
      <path d="M24.38-26.24Q24.41-26.17 24.95-25.73Q25.48-25.29 26.45-24.76Q27.42-24.22 28.83-23.80Q30.24-23.38 32.03-23.38Q35.04-23.38 37.71-24.53Q40.37-25.67 42.64-27.54Q44.90-29.40 46.71-31.80Q48.52-34.20 49.78-36.71Q51.04-39.23 51.72-41.67Q52.41-44.10 52.41-46.05Q52.41-48.37 51.72-50.08Q51.04-51.80 49.87-52.90Q48.71-54.01 47.13-54.54Q45.55-55.07 43.72-55.07Q40.10-55.07 36.54-53.80Q32.98-52.52 29.63-50.31Q26.28-48.10 23.19-45.11Q20.11-42.12 17.44-38.70Q14.78-35.27 12.61-31.55Q10.44-27.84 8.89-24.18Q7.35-20.53 6.51-17.08Q5.67-13.63 5.67-10.74Q5.67-7.39 6.65-4.42Q7.62-1.45 9.56 0.76Q11.50 2.97 14.42 4.25Q17.33 5.52 21.21 5.52Q24.68 5.52 28.41 4.46Q32.14 3.39 35.86 1.03Q39.57-1.33 43.19-5.08Q46.81-8.84 50.12-14.21L51.49-13.14Q47.91-7.31 44.03-3.35Q40.14 0.61 36.26 3.03Q32.37 5.45 28.60 6.49Q24.83 7.54 21.44 7.54Q16.57 7.54 12.83 5.81Q9.10 4.08 6.59 1.26Q4.08-1.56 2.80-5.16Q1.52-8.76 1.52-12.49Q1.52-15.69 2.42-19.31Q3.31-22.93 4.95-26.66Q6.59-30.39 8.89-34.12Q11.20-37.86 14.03-41.27Q16.87-44.67 20.19-47.61Q23.50-50.54 27.14-52.69Q30.77-54.84 34.64-56.08Q38.50-57.32 42.50-57.32Q45.02-57.32 47.32-56.61Q49.63-55.91 51.38-54.39Q53.13-52.86 54.16-50.48Q55.19-48.10 55.19-44.75Q55.19-42.50 54.50-39.88Q53.82-37.25 52.50-34.60Q51.19-31.95 49.30-29.48Q47.42-27 45.04-25.12Q42.66-23.23 39.78-22.09Q36.91-20.95 33.67-20.95Q30.20-20.95 27.63-22.11Q25.06-23.27 23.23-24.98L24.38-26.24M77.54-26.24Q77.58-26.17 78.11-25.73Q78.65-25.29 79.62-24.76Q80.59-24.22 82-23.80Q83.41-23.38 85.20-23.38Q88.21-23.38 90.87-24.53Q93.54-25.67 95.81-27.54Q98.07-29.40 99.88-31.80Q101.69-34.20 102.95-36.71Q104.20-39.23 104.89-41.67Q105.57-44.10 105.57-46.05Q105.57-48.37 104.89-50.08Q104.20-51.80 103.04-52.90Q101.88-54.01 100.30-54.54Q98.72-55.07 96.89-55.07Q93.27-55.07 89.71-53.80Q86.15-52.52 82.80-50.31Q79.45-48.10 76.36-45.11Q73.28-42.12 70.61-38.70Q67.95-35.27 65.77-31.55Q63.60-27.84 62.06-24.18Q60.52-20.53 59.68-17.08Q58.84-13.63 58.84-10.74Q58.84-7.39 59.81-4.42Q60.79-1.45 62.73 0.76Q64.67 2.97 67.58 4.25Q70.50 5.52 74.38 5.52Q77.85 5.52 81.58 4.46Q85.31 3.39 89.03 1.03Q92.74-1.33 96.36-5.08Q99.98-8.84 103.29-14.21L104.66-13.14Q101.08-7.31 97.20-3.35Q93.31 0.61 89.43 3.03Q85.54 5.45 81.77 6.49Q78 7.54 74.61 7.54Q69.74 7.54 66 5.81Q62.27 4.08 59.76 1.26Q57.24-1.56 55.97-5.16Q54.69-8.76 54.69-12.49Q54.69-15.69 55.59-19.31Q56.48-22.93 58.12-26.66Q59.76-30.39 62.06-34.12Q64.37-37.86 67.20-41.27Q70.04-44.67 73.35-47.61Q76.67-50.54 80.30-52.69Q83.94-54.84 87.81-56.08Q91.67-57.32 95.67-57.32Q98.19-57.32 100.49-56.61Q102.79-55.91 104.55-54.39Q106.30-52.86 107.33-50.48Q108.35-48.10 108.35-44.75Q108.35-42.50 107.67-39.88Q106.98-37.25 105.67-34.60Q104.36-31.95 102.47-29.48Q100.58-27 98.20-25.12Q95.82-23.23 92.95-22.09Q90.07-20.95 86.84-20.95Q83.37-20.95 80.80-22.11Q78.23-23.27 76.40-24.98L77.54-26.24M189.06-47.53Q189.06-45.09 188.11-42.47Q187.15-39.84 185.33-37.29Q183.50-34.73 180.81-32.37Q178.13-30.01 174.64-28.09Q171.16-26.17 166.93-24.79Q162.70-23.42 157.79-22.85Q155.77-19.16 153.60-15.52Q151.43-11.88 148.99-8.59Q146.55-5.29 143.83-2.49Q141.11 0.30 138 2.36Q134.90 4.42 131.34 5.58Q127.78 6.74 123.70 6.74Q120.35 6.74 117.21 5.77Q114.07 4.80 111.65 2.95Q109.23 1.10 107.78-1.56Q106.34-4.23 106.34-7.66Q106.34-11.35 107.69-14.09Q109.04-16.83 111.27-18.66Q113.50-20.49 116.31-21.39Q119.13-22.28 122.07-22.28Q124.31-22.28 126.50-21.84Q128.69-21.40 130.69-20.60Q132.69-19.80 134.42-18.70Q136.16-17.60 137.49-16.26L136.35-15.04Q135.43-15.92 134.20-16.72Q132.96-17.52 131.36-18.15Q129.76-18.78 127.85-19.14Q125.95-19.50 123.74-19.50Q121.19-19.50 118.79-18.64Q116.39-17.79 114.52-16.17Q112.66-14.55 111.52-12.21Q110.37-9.86 110.37-6.86Q110.37-4.42 111.34-2.30Q112.32-0.19 114.09 1.35Q115.86 2.89 118.28 3.77Q120.69 4.65 123.63 4.65Q126.98 4.65 129.93 3.60Q132.88 2.55 135.45 0.70Q138.02-1.14 140.33-3.69Q142.63-6.25 144.71-9.27Q146.78-12.30 148.69-15.65Q150.59-19 152.46-22.51L151.43-22.51Q145.03-22.51 139.91-23.82Q134.79-25.14 131.19-27.42Q127.59-29.71 125.66-32.77Q123.74-35.84 123.74-39.38Q123.74-42.92 125.11-45.63Q126.48-48.33 128.84-50.16Q131.21-51.99 134.33-52.92Q137.45-53.85 140.96-53.85Q143.96-53.85 146.48-53.38Q148.99-52.90 150.99-52.16Q152.99-51.42 154.53-50.54Q156.08-49.66 157.14-48.86Q158.21-48.06 158.82-47.46Q159.43-46.85 159.62-46.66L158.32-45.51Q158.29-45.55 157.22-46.48Q156.15-47.42 154.21-48.54Q152.27-49.66 149.53-50.60Q146.78-51.53 143.43-51.53Q140.04-51.53 137.20-50.58Q134.37-49.63 132.31-47.93Q130.25-46.24 129.09-43.91Q127.93-41.59 127.93-38.85Q127.93-35.61 129.72-32.96Q131.51-30.32 134.69-28.43Q137.87-26.55 142.19-25.50Q146.52-24.45 151.62-24.45L153.45-24.45Q155.43-28.22 157.39-31.94Q159.35-35.65 161.41-39.02Q163.46-42.39 165.67-45.28Q167.88-48.18 170.36-50.29Q172.83-52.41 175.65-53.61Q178.47-54.81 181.71-54.81Q183.04-54.81 184.35-54.44Q185.67-54.08 186.72-53.23Q187.76-52.37 188.41-50.98Q189.06-49.59 189.06-47.53M182.51-52.75Q180.11-52.75 177.94-51.68Q175.77-50.62 173.79-48.69Q171.81-46.77 169.94-44.16Q168.07-41.55 166.26-38.45Q164.46-35.34 162.63-31.90Q160.80-28.45 158.89-24.91Q163.85-25.56 167.88-27Q171.92-28.45 175.04-30.37Q178.17-32.30 180.45-34.54Q182.74-36.79 184.22-39.04Q185.71-41.29 186.41-43.36Q187.12-45.44 187.12-47.07Q187.12-48.29 186.87-49.32Q186.62-50.35 186.09-51.11Q185.55-51.87 184.68-52.31Q183.80-52.75 182.51-52.75" fill="#5b3a45"/>
    </g>
  </g>

  <g transform="translate(228.28 187.81) scale(0.7992)">
    <path d="M34.38-37.01Q34.43-36.90 35.18-36.28Q35.93-35.66 37.30-34.91Q38.67-34.16 40.66-33.57Q42.65-32.98 45.17-32.98Q49.41-32.98 53.17-34.59Q56.93-36.20 60.13-38.83Q63.33-41.46 65.88-44.85Q68.43-48.23 70.20-51.78Q71.97-55.32 72.94-58.76Q73.91-62.20 73.91-64.94Q73.91-68.21 72.94-70.63Q71.97-73.05 70.33-74.60Q68.70-76.16 66.47-76.91Q64.24-77.67 61.66-77.67Q56.56-77.67 51.54-75.87Q46.51-74.07 41.79-70.95Q37.06-67.84 32.71-63.62Q28.36-59.40 24.60-54.57Q20.84-49.74 17.78-44.50Q14.72-39.26 12.54-34.11Q10.37-28.95 9.18-24.09Q8-19.23 8-15.15Q8-10.42 9.37-6.23Q10.74-2.04 13.48 1.07Q16.22 4.19 20.33 5.99Q24.44 7.79 29.92 7.79Q34.80 7.79 40.07 6.28Q45.33 4.78 50.57 1.45Q55.81-1.88 60.91-7.17Q66.01-12.46 70.68-20.03L72.62-18.53Q67.57-10.31 62.09-4.73Q56.61 0.86 51.13 4.27Q45.65 7.68 40.34 9.16Q35.02 10.63 30.24 10.63Q23.36 10.63 18.10 8.19Q12.84 5.75 9.29 1.77Q5.75-2.20 3.95-7.28Q2.15-12.35 2.15-17.62Q2.15-22.13 3.41-27.23Q4.67-32.33 6.98-37.60Q9.29-42.86 12.54-48.12Q15.79-53.39 19.79-58.20Q23.79-63 28.47-67.14Q33.14-71.27 38.27-74.31Q43.40-77.34 48.85-79.09Q54.30-80.83 59.94-80.83Q63.49-80.83 66.74-79.84Q69.99-78.85 72.46-76.70Q74.93-74.55 76.38-71.19Q77.83-67.84 77.83-63.11Q77.83-59.94 76.86-56.24Q75.89-52.53 74.04-48.80Q72.19-45.06 69.53-41.57Q66.87-38.08 63.51-35.42Q60.16-32.76 56.10-31.15Q52.05-29.54 47.48-29.54Q42.59-29.54 38.97-31.18Q35.34-32.82 32.76-35.23L34.38-37.01M100.98-14.61Q101.19-14.56 101.41-14.56Q101.62-14.56 101.89-14.56Q103.39-14.56 104.63-14.85Q105.86-15.15 106.91-15.79Q107.96-16.44 108.93-17.48Q109.89-18.53 110.81-20.03L112.74-18.53Q110.16-14.88 107.42-13.43Q104.68-11.98 101.62-11.98Q100.49-11.98 99.63-12.19Q97.32-8.33 94.69-5.61Q92.06-2.90 89.32-1.18Q86.58 0.54 83.90 1.32Q81.21 2.09 78.90 2.09Q76.54 2.09 74.52 1.26Q72.51 0.43 71.06-1.13Q69.61-2.69 68.80-4.83Q68-6.98 68-9.67Q68-12.35 68.86-15.15Q69.72-17.94 71.19-20.68Q72.67-23.42 74.66-25.97Q76.65-28.52 78.96-30.72Q81.26-32.92 83.74-34.70Q86.21-36.47 88.68-37.60L90.40-35.34Q87.55-33.30 84.62-30.19Q81.69-27.07 79.30-23.36Q76.91-19.66 75.38-15.66Q73.85-11.66 73.85-7.90Q73.85-4.51 75.36-2.66Q76.86-0.81 79.92-0.81Q82.29-0.81 84.59-1.77Q86.90-2.74 89.11-4.40Q91.31-6.07 93.35-8.35Q95.39-10.63 97.22-13.21Q95.66-14.13 94.48-15.66Q93.30-17.19 92.49-19.15Q91.68-21.11 91.28-23.36Q90.88-25.62 90.88-27.98Q90.88-30.35 91.47-32.44Q92.06-34.54 93.11-36.12Q94.16-37.71 95.55-38.62Q96.95-39.53 98.61-39.53Q100.12-39.53 101.30-38.75Q102.48-37.97 103.29-36.60Q104.09-35.23 104.52-33.35Q104.95-31.47 104.95-29.33Q104.95-27.71 104.68-25.78Q104.41-23.85 103.90-21.89Q103.39-19.93 102.67-18.02Q101.94-16.11 100.98-14.61M93.67-27.98Q93.67-26.43 93.94-24.60Q94.21-22.77 94.80-21.05Q95.39-19.34 96.30-17.86Q97.22-16.38 98.56-15.52Q99.53-17.40 100.20-19.36Q100.87-21.32 101.33-23.15Q101.78-24.98 101.97-26.56Q102.16-28.14 102.16-29.33Q102.16-30.94 101.89-32.28Q101.62-33.62 101.16-34.62Q100.71-35.61 100.04-36.17Q99.37-36.74 98.56-36.74Q97.49-36.74 96.57-36.01Q95.66-35.29 95.01-34.08Q94.37-32.87 94.02-31.29Q93.67-29.70 93.67-27.98M125.74-1.18Q126.06-0.59 126.70 0.67Q127.35 1.93 127.67 3.65Q131 1.56 134.20-0.83Q137.39-3.22 140.40-6.10Q143.41-8.97 146.23-12.41Q149.05-15.84 151.63-20.03L153.56-18.53Q150.82-14.02 147.87-10.39Q144.91-6.77 141.72-3.76Q138.52-0.75 135.06 1.80Q131.59 4.35 127.83 6.66Q127.62 11.66 125.63 16.73Q123.64 21.81 120.55 26.53Q117.47 31.26 113.57 35.37Q109.68 39.48 105.68 42.54Q101.67 45.60 97.89 47.37Q94.10 49.15 91.20 49.15Q89.11 49.15 87.68 48.42Q86.26 47.70 85.40 46.57Q84.54 45.44 84.17 44.10Q83.79 42.75 83.79 41.52Q83.79 38.40 85.72 34.83Q87.66 31.26 91.44 27.42Q95.23 23.58 100.82 19.60Q106.40 15.63 113.65 11.71Q116.18 10.31 118.65 8.97Q121.12 7.63 123.59 6.18Q123.59 5.91 123.62 5.61Q123.64 5.32 123.64 5.05Q123.64 3.44 123.40 2.28Q123.16 1.13 122.73 0.32Q119.78 1.50 117.73 1.50Q115.75 1.50 114.40 0.56Q113.06-0.38 113.06-1.99Q113.06-3.71 114.57-4.65Q116.07-5.59 118.16-5.59Q120.96-5.59 123.37-3.76Q125.84-5.69 128.15-8.73Q130.46-11.76 132.24-15.28Q134.01-18.80 135.08-22.48Q136.16-26.16 136.16-29.38Q136.16-31.15 135.70-32.39Q135.24-33.62 134.49-34.40Q133.74-35.18 132.77-35.56Q131.81-35.93 130.73-35.93Q128.53-35.93 126.52-34.86Q124.50-33.78 122.73-32.09Q120.96-30.40 119.43-28.36Q117.90-26.32 116.63-24.38Q115.37-22.45 114.40-20.87Q113.44-19.28 112.79-18.53L110.81-20.03Q111.45-20.89 112.44-22.59Q113.44-24.28 114.78-26.37Q116.12-28.47 117.79-30.67Q119.45-32.87 121.44-34.67Q123.43-36.47 125.76-37.62Q128.10-38.78 130.73-38.78Q133.26-38.78 135.27-37.95Q137.29-37.11 138.71-35.64Q140.13-34.16 140.91-32.07Q141.69-29.97 141.69-27.39Q141.69-23.63 140.40-19.82Q139.11-16.01 136.94-12.54Q134.76-9.08 131.86-6.15Q128.96-3.22 125.74-1.18M112.09 28.14Q113.76 26.05 115.42 23.74Q117.09 21.43 118.54 19.04Q119.99 16.65 121.15 14.26Q122.30 11.87 122.94 9.61L115.05 14.07Q108.17 17.89 103.37 21.24Q98.56 24.60 95.42 27.47Q92.28 30.35 90.50 32.66Q88.73 34.97 87.84 36.74Q86.96 38.51 86.77 39.67Q86.58 40.82 86.58 41.36Q86.58 42.11 86.74 42.89Q86.90 43.67 87.36 44.26Q87.82 44.85 88.57 45.22Q89.32 45.60 90.56 45.60Q91.90 45.60 93.86 44.85Q95.82 44.10 98.45 42.14Q101.08 40.18 104.47 36.79Q107.85 33.41 112.09 28.14M121.17-2.15Q120.42-2.63 119.56-2.87Q118.70-3.12 118.11-3.12Q115.80-3.12 115.80-2.09Q115.80-1.07 117.79-1.07Q118.33-1.07 119.35-1.32Q120.37-1.56 121.17-2.15M175.42-11.98Q173.33-9.67 171.18-7.71Q169.03-5.75 166.93-4.30Q164.84-2.85 162.82-2.01Q160.81-1.18 158.93-1.18Q156.84-1.18 155.14-1.96Q153.45-2.74 152.24-4.19Q151.04-5.64 150.39-7.63Q149.75-9.61 149.75-12.03Q149.75-15.25 151.09-18.75Q152.43-22.24 154.55-25.54Q156.67-28.84 159.28-31.80Q161.88-34.75 164.36-36.90L166.67-35.29Q166.02-34.37 164.89-32.76Q163.76-31.15 162.48-29.03Q161.19-26.91 159.87-24.44Q158.55-21.97 157.48-19.39Q156.41-16.81 155.73-14.23Q155.06-11.66 155.06-9.40Q155.06-8.33 155.25-7.33Q155.44-6.34 155.90-5.59Q156.35-4.83 157.10-4.40Q157.86-3.97 159.04-3.97Q160.92-3.97 163.15-5.13Q165.38-6.28 167.77-8.30Q170.16-10.31 172.65-13Q175.15-15.68 177.57-18.75Q179.99-21.81 182.24-25.06Q184.50-28.31 186.43-31.47Q188.15-34.32 189.87-37.19Q191.59-40.07 193.31-42.81L195.83-41.52Q195.78-41.41 194.84-39.50Q193.90-37.60 192.34-34.35Q190.78-31.10 188.71-26.83Q186.65-22.56 184.34-17.75Q182.03-12.94 179.64-7.90Q177.25-2.85 174.99 1.93Q182.56-2.26 188.71-8Q194.86-13.75 199.27-20.03L201.25-18.53Q196.58-11.39 189.65-5.34Q182.72 0.70 172.95 6.23Q168.49 15.79 164.22 23.69Q159.95 31.58 155.68 37.22Q151.41 42.86 147.14 45.95Q142.87 49.04 138.47 49.04Q135.57 49.04 133.63 47.10Q131.70 45.17 131.70 41.57Q131.70 38.56 133.04 35.40Q134.38 32.23 136.75 29.03Q139.11 25.83 142.36 22.69Q145.61 19.55 149.45 16.65Q153.29 13.75 157.51 11.12Q161.72 8.49 166.07 6.28Q167.20 3.92 168.49 1.32Q169.78-1.29 171.02-3.73Q172.25-6.18 173.41-8.35Q174.56-10.53 175.42-11.98M163.60 11.49Q157.43 15.31 152.14 19.63Q146.85 23.96 142.95 28.17Q139.06 32.39 136.86 36.09Q134.65 39.80 134.65 42.38Q134.65 44.10 135.65 45.12Q136.64 46.14 138.20 46.14Q140.29 46.14 142.52 44.71Q144.75 43.29 146.98 40.82Q149.21 38.35 151.41 34.99Q153.61 31.64 155.73 27.80Q157.86 23.96 159.84 19.79Q161.83 15.63 163.60 11.49M265.87-37.01Q265.92-36.90 266.67-36.28Q267.43-35.66 268.80-34.91Q270.17-34.16 272.15-33.57Q274.14-32.98 276.67-32.98Q280.91-32.98 284.67-34.59Q288.43-36.20 291.62-38.83Q294.82-41.46 297.37-44.85Q299.92-48.23 301.69-51.78Q303.47-55.32 304.43-58.76Q305.40-62.20 305.40-64.94Q305.40-68.21 304.43-70.63Q303.47-73.05 301.83-74.60Q300.19-76.16 297.96-76.91Q295.73-77.67 293.15-77.67Q288.05-77.67 283.03-75.87Q278.01-74.07 273.28-70.95Q268.55-67.84 264.20-63.62Q259.85-59.40 256.09-54.57Q252.33-49.74 249.27-44.50Q246.21-39.26 244.04-34.11Q241.86-28.95 240.68-24.09Q239.50-19.23 239.50-15.15Q239.50-10.42 240.87-6.23Q242.24-2.04 244.98 1.07Q247.71 4.19 251.82 5.99Q255.93 7.79 261.41 7.79Q266.30 7.79 271.56 6.28Q276.83 4.78 282.06 1.45Q287.30-1.88 292.40-7.17Q297.50-12.46 302.18-20.03L304.11-18.53Q299.06-10.31 293.58-4.73Q288.11 0.86 282.63 4.27Q277.15 7.68 271.83 9.16Q266.51 10.63 261.73 10.63Q254.86 10.63 249.59 8.19Q244.33 5.75 240.79 1.77Q237.24-2.20 235.44-7.28Q233.64-12.35 233.64-17.62Q233.64-22.13 234.90-27.23Q236.17-32.33 238.48-37.60Q240.79-42.86 244.04-48.12Q247.29-53.39 251.29-58.20Q255.29-63 259.96-67.14Q264.63-71.27 269.76-74.31Q274.89-77.34 280.34-79.09Q285.80-80.83 291.44-80.83Q294.98-80.83 298.23-79.84Q301.48-78.85 303.95-76.70Q306.42-74.55 307.87-71.19Q309.32-67.84 309.32-63.11Q309.32-59.94 308.35-56.24Q307.39-52.53 305.53-48.80Q303.68-45.06 301.02-41.57Q298.36-38.08 295.01-35.42Q291.65-32.76 287.60-31.15Q283.54-29.54 278.97-29.54Q274.09-29.54 270.46-31.18Q266.84-32.82 264.26-35.23L265.87-37.01M334.08-20.03L336.07-18.53Q335.26-17.35 334.16-15.33Q333.06-13.32 331.61-10.98Q330.16-8.65 328.42-6.23Q326.67-3.81 324.60-1.88Q322.53 0.05 320.12 1.29Q317.70 2.52 314.96 2.52Q313.46 2.52 312.11 2.07Q310.77 1.61 309.75 0.64Q308.73-0.32 308.14-1.75Q307.55-3.17 307.55-5.10Q307.55-7.73 308.60-10.61Q309.64-13.48 311.04-16.17Q312.44-18.85 313.83-21.08Q315.23-23.31 315.87-24.65Q316.52-26 316.52-26.96Q316.52-27.66 316.06-28.20Q315.61-28.74 314.93-29.25Q314.26-29.76 313.54-30.32Q312.81-30.88 312.33-31.69Q310.99-29.54 309.59-27.34Q308.35-25.46 306.90-23.12Q305.45-20.79 304.11-18.53L302.18-20.03L313.67-38.03L315.23-37.22Q315.12-36.90 314.88-36.20Q314.64-35.50 314.64-34.70Q314.64-34.11 314.83-33.54Q315.01-32.98 315.61-32.50Q317.75-30.56 318.99-29.51Q320.22-28.47 320.79-27.85Q321.35-27.23 321.49-26.83Q321.62-26.43 321.62-25.78Q321.62-25.14 321.41-24.22Q321.19-23.31 320.68-22.02Q320.17-20.73 319.28-18.99Q318.40-17.24 317.06-14.93Q316.25-13.54 315.47-12.11Q314.69-10.69 314.07-9.24Q313.46-7.79 313.08-6.34Q312.71-4.89 312.71-3.54Q312.71-2.52 313-1.91Q313.30-1.29 313.78-0.97Q314.26-0.64 314.83-0.54Q315.39-0.43 315.93-0.43Q317.70-0.43 319.45-1.48Q321.19-2.52 322.88-4.19Q324.58-5.85 326.16-7.98Q327.74-10.10 329.19-12.30Q330.64-14.50 331.88-16.52Q333.12-18.53 334.08-20.03M364.38-14.61Q364.59-14.56 364.80-14.56Q365.02-14.56 365.29-14.56Q366.79-14.56 368.03-14.85Q369.26-15.15 370.31-15.79Q371.36-16.44 372.32-17.48Q373.29-18.53 374.20-20.03L376.14-18.53Q373.56-14.88 370.82-13.43Q368.08-11.98 365.02-11.98Q363.89-11.98 363.03-12.19Q360.72-8.33 358.09-5.61Q355.46-2.90 352.72-1.18Q349.98 0.54 347.29 1.32Q344.61 2.09 342.30 2.09Q339.94 2.09 337.92 1.26Q335.91 0.43 334.46-1.13Q333.01-2.69 332.20-4.83Q331.40-6.98 331.40-9.67Q331.40-12.35 332.26-15.15Q333.12-17.94 334.59-20.68Q336.07-23.42 338.06-25.97Q340.04-28.52 342.35-30.72Q344.66-32.92 347.13-34.70Q349.60-36.47 352.08-37.60L353.79-35.34Q350.95-33.30 348.02-30.19Q345.09-27.07 342.70-23.36Q340.31-19.66 338.78-15.66Q337.25-11.66 337.25-7.90Q337.25-4.51 338.75-2.66Q340.26-0.81 343.32-0.81Q345.68-0.81 347.99-1.77Q350.30-2.74 352.50-4.40Q354.71-6.07 356.75-8.35Q358.79-10.63 360.62-13.21Q359.06-14.13 357.88-15.66Q356.69-17.19 355.89-19.15Q355.08-21.11 354.68-23.36Q354.28-25.62 354.28-27.98Q354.28-30.35 354.87-32.44Q355.46-34.54 356.51-36.12Q357.55-37.71 358.95-38.62Q360.35-39.53 362.01-39.53Q363.52-39.53 364.70-38.75Q365.88-37.97 366.68-36.60Q367.49-35.23 367.92-33.35Q368.35-31.47 368.35-29.33Q368.35-27.71 368.08-25.78Q367.81-23.85 367.30-21.89Q366.79-19.93 366.07-18.02Q365.34-16.11 364.38-14.61M357.07-27.98Q357.07-26.43 357.34-24.60Q357.61-22.77 358.20-21.05Q358.79-19.34 359.70-17.86Q360.62-16.38 361.96-15.52Q362.92-17.40 363.60-19.36Q364.27-21.32 364.72-23.15Q365.18-24.98 365.37-26.56Q365.56-28.14 365.56-29.33Q365.56-30.94 365.29-32.28Q365.02-33.62 364.56-34.62Q364.11-35.61 363.44-36.17Q362.76-36.74 361.96-36.74Q360.88-36.74 359.97-36.01Q359.06-35.29 358.41-34.08Q357.77-32.87 357.42-31.29Q357.07-29.70 357.07-27.98M391.45-42.16Q391.18-41.68 390.75-41.12Q390.32-40.55 389.91-39.83Q389.51-39.10 389.22-38.13Q388.92-37.17 388.92-35.83Q388.92-34.70 389.48-32.76Q390.05-30.83 390.69-28.33Q391.34-25.83 391.90-22.91Q392.47-19.98 392.47-16.87Q392.47-12.30 391.23-8.81Q390-5.32 387.95-2.85Q392.14-5.10 396.17-9.32Q400.20-13.54 404.28-20.03L406.11-18.42Q403.80-14.61 400.87-10.88Q397.94-7.14 394.45-4.16Q390.96-1.18 386.93 0.67Q382.91 2.52 378.39 2.52Q374.37 2.52 371.60 0.62Q368.83-1.29 368.19-5.10L370.12-5.48Q370.12-5.16 370.42-4.43Q370.71-3.71 371.36-3.01Q372-2.31 373.10-1.77Q374.20-1.24 375.82-1.24Q377.96-1.24 379.63-2.23Q381.29-3.22 382.53-4.83Q383.76-6.45 384.62-8.51Q385.48-10.58 385.99-12.78Q386.50-14.99 386.72-17.08Q386.93-19.17 386.93-20.89Q386.93-22.61 386.80-24.71Q386.67-26.80 386.50-28.71Q386.34-30.62 386.21-32.04Q386.07-33.46 386.07-33.89L386.07-34Q385.38-33.25 384.41-31.80Q383.44-30.35 382.34-28.63Q381.24-26.91 380.14-25.14Q379.04-23.36 378.15-21.91Q377.27-20.46 376.70-19.52Q376.14-18.58 376.14-18.53L374.20-20.03Q374.26-20.09 375.55-22.34Q376.84-24.60 378.96-28.06Q381.08-31.53 383.76-35.74Q386.45-39.96 389.30-43.94L391.45-42.16M421.52-42.16Q421.25-41.68 420.83-41.12Q420.40-40.55 419.99-39.83Q419.59-39.10 419.29-38.13Q419-37.17 419-35.83Q419-34.70 419.56-32.76Q420.13-30.83 420.77-28.33Q421.42-25.83 421.98-22.91Q422.54-19.98 422.54-16.87Q422.54-12.30 421.31-8.81Q420.07-5.32 418.03-2.85Q422.22-5.10 426.25-9.32Q430.28-13.54 434.36-20.03L436.19-18.42Q433.88-14.61 430.95-10.88Q428.02-7.14 424.53-4.16Q421.04-1.18 417.01 0.67Q412.98 2.52 408.47 2.52Q404.44 2.52 401.68 0.62Q398.91-1.29 398.27-5.10L400.20-5.48Q400.20-5.16 400.50-4.43Q400.79-3.71 401.44-3.01Q402.08-2.31 403.18-1.77Q404.28-1.24 405.89-1.24Q408.04-1.24 409.71-2.23Q411.37-3.22 412.61-4.83Q413.84-6.45 414.70-8.51Q415.56-10.58 416.07-12.78Q416.58-14.99 416.80-17.08Q417.01-19.17 417.01-20.89Q417.01-22.61 416.88-24.71Q416.74-26.80 416.58-28.71Q416.42-30.62 416.29-32.04Q416.15-33.46 416.15-33.89L416.15-34Q415.45-33.25 414.49-31.80Q413.52-30.35 412.42-28.63Q411.32-26.91 410.22-25.14Q409.12-23.36 408.23-21.91Q407.34-20.46 406.78-19.52Q406.22-18.58 406.22-18.53L404.28-20.03Q404.34-20.09 405.63-22.34Q406.91-24.60 409.04-28.06Q411.16-31.53 413.84-35.74Q416.53-39.96 419.38-43.94L421.52-42.16M580.02-67.03Q580.02-63.59 578.68-59.89Q577.34-56.18 574.76-52.58Q572.18-48.98 568.40-45.65Q564.61-42.32 559.69-39.61Q554.78-36.90 548.82-34.97Q542.86-33.03 535.93-32.23Q533.08-27.02 530.02-21.89Q526.96-16.76 523.52-12.11Q520.08-7.47 516.24-3.52Q512.40 0.43 508.02 3.33Q503.65 6.23 498.63 7.87Q493.60 9.51 487.86 9.51Q483.13 9.51 478.70 8.14Q474.27 6.77 470.86 4.16Q467.45 1.56 465.41-2.20Q463.36-5.96 463.36-10.80Q463.36-16.01 465.27-19.87Q467.18-23.74 470.32-26.32Q473.46-28.90 477.44-30.16Q481.41-31.42 485.55-31.42Q488.72-31.42 491.80-30.80Q494.89-30.19 497.71-29.06Q500.53-27.93 502.98-26.37Q505.42-24.81 507.30-22.93L505.69-21.22Q504.40-22.45 502.65-23.58Q500.91-24.71 498.65-25.59Q496.40-26.48 493.71-26.99Q491.03-27.50 487.91-27.50Q484.31-27.50 480.93-26.29Q477.54-25.08 474.91-22.80Q472.28-20.52 470.67-17.21Q469.06-13.91 469.06-9.67Q469.06-6.23 470.43-3.25Q471.80-0.27 474.29 1.91Q476.79 4.08 480.20 5.32Q483.61 6.55 487.75 6.55Q492.48 6.55 496.64 5.08Q500.80 3.60 504.43 0.99Q508.05-1.61 511.30-5.21Q514.55-8.81 517.48-13.08Q520.41-17.35 523.09-22.08Q525.78-26.80 528.41-31.74L526.96-31.74Q517.93-31.74 510.71-33.60Q503.49-35.45 498.41-38.67Q493.33-41.89 490.62-46.22Q487.91-50.54 487.91-55.54Q487.91-60.53 489.84-64.35Q491.78-68.16 495.11-70.74Q498.44-73.32 502.84-74.63Q507.25-75.95 512.19-75.95Q516.43-75.95 519.98-75.28Q523.52-74.60 526.34-73.56Q529.16-72.51 531.34-71.27Q533.51-70.04 535.01-68.91Q536.52-67.78 537.38-66.92Q538.24-66.06 538.51-65.80L536.68-64.18Q536.63-64.24 535.12-65.55Q533.62-66.87 530.88-68.45Q528.14-70.04 524.27-71.35Q520.41-72.67 515.68-72.67Q510.90-72.67 506.90-71.33Q502.90-69.99 500-67.60Q497.09-65.21 495.46-61.93Q493.82-58.65 493.82-54.79Q493.82-50.22 496.34-46.49Q498.87-42.75 503.35-40.10Q507.84-37.44 513.93-35.96Q520.03-34.48 527.23-34.48L529.80-34.48Q532.60-39.80 535.36-45.04Q538.13-50.27 541.03-55.03Q543.93-59.78 547.05-63.86Q550.16-67.94 553.65-70.93Q557.14-73.91 561.12-75.60Q565.09-77.29 569.66-77.29Q571.54-77.29 573.39-76.78Q575.24-76.27 576.72-75.06Q578.20-73.85 579.11-71.89Q580.02-69.93 580.02-67.03M570.79-74.39Q567.40-74.39 564.34-72.89Q561.28-71.38 558.49-68.67Q555.69-65.96 553.06-62.28Q550.43-58.60 547.88-54.22Q545.33-49.84 542.75-44.98Q540.17-40.12 537.49-35.13Q544.47-36.04 550.16-38.08Q555.85-40.12 560.26-42.83Q564.66-45.55 567.89-48.72Q571.11-51.88 573.20-55.05Q575.30-58.22 576.29-61.15Q577.29-64.08 577.29-66.39Q577.29-68.11 576.94-69.56Q576.59-71.01 575.83-72.08Q575.08-73.15 573.85-73.77Q572.61-74.39 570.79-74.39M565.42-44.31L574.81-44.31Q575.35-45.22 576.72-47.48Q578.09-49.74 579.94-52.48Q581.80-55.21 583.97-57.98Q586.15-60.75 588.24-62.68L590.66-61.23Q588.35-57.42 585.93-53.15Q583.52-48.88 581.15-44.31L598.66-44.31L597.59-41.52L579.70-41.52Q577.29-36.68 575.16-31.90Q573.04-27.12 571.43-22.77Q569.82-18.42 568.91-14.64Q567.99-10.85 567.99-8.06Q567.99-4.57 569.60-3.03Q571.22-1.50 573.58-1.50Q575.67-1.50 577.88-2.77Q580.08-4.03 582.20-5.96Q584.32-7.90 586.23-10.21Q588.13-12.51 589.61-14.56Q591.09-16.60 592.06-18.13Q593.02-19.66 593.24-20.03L595.22-18.53Q593.34-15.42 590.98-11.92Q588.62-8.43 585.74-5.45Q582.87-2.47 579.49-0.51Q576.10 1.45 572.18 1.45Q569.77 1.45 567.97 0.59Q566.17-0.27 564.93-1.80Q563.70-3.33 563.08-5.42Q562.46-7.52 562.46-9.99Q562.46-11.60 562.97-14.56Q563.48-17.51 564.72-21.56Q565.95-25.62 568.02-30.67Q570.09-35.72 573.26-41.52L564.34-41.52L565.42-44.31M617.35-47.64Q617.35-46.57 616.82-45.41Q616.28-44.26 615.45-43.34Q614.61-42.43 613.59-41.84Q612.57-41.25 611.55-41.25Q610.64-41.25 610.16-41.92Q609.67-42.59 609.67-43.56Q609.67-44.42 610-45.60Q610.32-46.78 610.96-47.83Q611.61-48.88 612.52-49.63Q613.43-50.38 614.61-50.38Q615.74-50.38 616.55-49.52Q617.35-48.66 617.35-47.64M605.59-36.47L607.31-35.72Q606.61-34.32 605.35-32.04Q604.09-29.76 602.64-27.04Q601.19-24.33 599.68-21.35Q598.18-18.37 596.97-15.55Q595.76-12.73 595.01-10.26Q594.26-7.79 594.26-6.07Q594.26-4.51 594.90-3.95Q595.55-3.38 596.73-3.38Q598.93-3.38 601.03-4.83Q603.12-6.28 605.19-8.62Q607.26-10.96 609.24-13.96Q611.23-16.97 613.22-20.03L615.15-18.53Q613.59-15.74 611.63-12.57Q609.67-9.40 607.26-6.69Q604.84-3.97 601.94-2.20Q599.04-0.43 595.60-0.43Q592.38-0.43 590.66-2.36Q588.94-4.30 588.94-7.36Q588.94-10.96 590.61-14.88Q592.27-18.80 594.77-22.64Q597.27-26.48 600.19-30.02Q603.12-33.57 605.59-36.47M614.72-44.31L624.12-44.31Q624.66-45.22 626.03-47.48Q627.40-49.74 629.25-52.48Q631.10-55.21 633.28-57.98Q635.45-60.75 637.55-62.68L639.97-61.23Q637.66-57.42 635.24-53.15Q632.82-48.88 630.46-44.31L647.97-44.31L646.89-41.52L629.01-41.52Q626.59-36.68 624.47-31.90Q622.35-27.12 620.74-22.77Q619.13-18.42 618.21-14.64Q617.30-10.85 617.30-8.06Q617.30-4.57 618.91-3.03Q620.52-1.50 622.89-1.50Q624.98-1.50 627.18-2.77Q629.38-4.03 631.51-5.96Q633.63-7.90 635.53-10.21Q637.44-12.51 638.92-14.56Q640.40-16.60 641.36-18.13Q642.33-19.66 642.54-20.03L644.53-18.53Q642.65-15.42 640.29-11.92Q637.92-8.43 635.05-5.45Q632.18-2.47 628.79-0.51Q625.41 1.45 621.49 1.45Q619.07 1.45 617.27 0.59Q615.47-0.27 614.24-1.80Q613-3.33 612.39-5.42Q611.77-7.52 611.77-9.99Q611.77-11.60 612.28-14.56Q612.79-17.51 614.02-21.56Q615.26-25.62 617.33-30.67Q619.39-35.72 622.56-41.52L613.65-41.52L614.72-44.31M672.84-32.60Q673.16-33.46 673.16-34.43Q673.16-36.15 671.79-37.14Q670.42-38.13 667.47-38.13Q665.05-38.13 662.60-37.09Q660.16-36.04 657.91-34.21Q655.65-32.39 653.69-29.86Q651.73-27.34 650.31-24.38Q648.88-21.43 648.05-18.13Q647.22-14.82 647.22-11.49Q647.22-8.81 647.81-6.93Q648.40-5.05 649.47-3.87Q650.55-2.69 652.05-2.18Q653.55-1.67 655.43-1.67Q659.14-1.67 662.63-3.33Q666.12-5 669.27-7.65Q672.41-10.31 675.07-13.59Q677.72-16.87 679.77-20.03L681.75-18.53Q678.85-13.64 675.58-9.96Q672.30-6.28 668.86-3.81Q665.42-1.34 661.88-0.11Q658.33 1.13 654.95 1.13Q652.27 1.13 649.82 0.32Q647.38-0.48 645.52-2.12Q643.67-3.76 642.57-6.34Q641.47-8.92 641.47-12.46Q641.47-16.65 642.68-20.38Q643.89-24.12 645.90-27.29Q647.92-30.45 650.55-33.01Q653.18-35.56 656.05-37.33Q658.93-39.10 661.85-40.04Q664.78-40.98 667.36-40.98Q669.99-40.98 671.66-40.26Q673.32-39.53 674.29-38.51Q675.25-37.49 675.60-36.36Q675.95-35.23 675.95-34.43Q675.95-33.14 675.58-31.69Q675.20-30.24 674.53-29.03Q673.86-27.82 672.86-27.02Q671.87-26.21 670.69-26.21Q669.51-26.21 668.65-26.99Q667.79-27.77 667.79-28.95Q667.79-29 667.87-29.59Q667.95-30.19 668.38-30.86Q668.81-31.53 669.69-32.07Q670.58-32.60 672.19-32.60L672.84-32.60M693.62-35.34L687.07-21Q689.92-24.87 692.98-28.12Q696.04-31.37 699.16-33.73Q702.27-36.09 705.31-37.41Q708.34-38.73 711.19-38.73Q713.12-38.73 714.38-38.13Q715.64-37.54 716.37-36.60Q717.09-35.66 717.39-34.54Q717.69-33.41 717.69-32.28Q717.69-30.35 716.88-28.12Q716.07-25.89 714.87-23.47Q713.66-21.05 712.26-18.53Q710.86-16.01 709.66-13.59Q708.45-11.17 707.64-8.89Q706.84-6.61 706.84-4.62Q706.84-3.38 707.40-2.34Q707.96-1.29 709.41-1.29Q711.13-1.29 713.23-3.03Q715.32-4.78 717.50-7.49Q719.67-10.21 721.85-13.54Q724.02-16.87 725.90-20.03L727.84-18.53Q727.25-17.72 726.23-15.93Q725.21-14.13 723.84-11.90Q722.47-9.67 720.77-7.30Q719.08-4.94 717.18-2.98Q715.27-1.02 713.17 0.24Q711.08 1.50 708.93 1.50Q707.53 1.50 706.14 1.18Q704.74 0.86 703.61 0Q702.49-0.86 701.79-2.34Q701.09-3.81 701.09-6.07Q701.09-8.70 701.98-11.41Q702.86-14.13 704.18-16.78Q705.49-19.44 707.05-21.94Q708.61-24.44 709.92-26.64Q711.24-28.84 712.13-30.64Q713.01-32.44 713.01-33.68Q713.01-35.88 710.86-35.88Q707.80-35.88 704.39-33.86Q700.98-31.85 697.54-28.63Q694.11-25.41 690.78-21.40Q687.45-17.40 684.55-13.43L676.38 1.93L671.49 0Q678.32-14.88 684.63-29.41Q690.94-43.94 697.60-58.12Q698.62-60.32 699.99-62.90Q701.36-65.47 702.94-68.05Q704.53-70.63 706.35-72.99Q708.18-75.36 710.11-77.18Q712.05-79.01 714.11-80.11Q716.18-81.21 718.28-81.21Q720.64-81.21 721.96-79.90Q723.27-78.58 723.27-76.16Q723.27-73.64 721.93-70.44Q720.59-67.25 718.33-63.70Q716.07-60.16 713.09-56.40Q710.11-52.64 706.81-48.93Q703.51-45.22 700.12-41.76Q696.74-38.30 693.62-35.34M718.54-78.36Q716.13-78.36 714.11-76.51Q712.10-74.66 709.74-70.42Q707.37-66.17 704.31-59.35Q701.25-52.53 696.85-42.59Q702.75-48.34 707.19-53.74Q711.62-59.14 714.57-63.59Q717.52-68.05 719-71.35Q720.48-74.66 720.48-76.27Q720.48-77.24 719.94-77.80Q719.40-78.36 718.54-78.36" fill="#5b3a45"/>
  </g>
  <text x="230" y="248" font-family="'Nunito', 'Segoe UI', system-ui, sans-serif" font-size="22" font-weight="600" fill="#9b6b76" letter-spacing="3">CROSS STITCH PATTERN MAKER</text>

  <text x="80" y="360" font-family="'Cormorant Garamond', Georgia, serif" font-size="76" font-weight="600" fill="#3d2932">Turn photos into</text>
  <text x="80" y="436" font-family="'Cormorant Garamond', Georgia, serif" font-size="76" font-weight="700" fill="#c58a95" font-style="italic">beautiful cross stitch.</text>

  <g font-family="'Nunito', 'Segoe UI', system-ui, sans-serif" font-size="24" font-weight="600" fill="#5b3a45">
    <g transform="translate(80,485)">
      <rect width="240" height="56" rx="28" fill="rgba(255,255,255,0.75)" stroke="rgba(197,138,149,0.35)"/>
      <text x="32" y="36">DMC thread key</text>
    </g>
    <g transform="translate(340,485)">
      <rect width="240" height="56" rx="28" fill="rgba(255,255,255,0.75)" stroke="rgba(197,138,149,0.35)"/>
      <text x="32" y="36">Half-stitch blend</text>
    </g>
    <g transform="translate(600,485)">
      <rect width="220" height="56" rx="28" fill="rgba(255,255,255,0.75)" stroke="rgba(197,138,149,0.35)"/>
      <text x="32" y="36">Skein estimate</text>
    </g>
    <g transform="translate(840,485)">
      <rect width="280" height="56" rx="28" fill="rgba(255,255,255,0.75)" stroke="rgba(197,138,149,0.35)"/>
      <text x="32" y="36">Offline · installable</text>
    </g>
  </g>

  <g transform="translate(820,80)">
    <rect width="300" height="300" rx="18" fill="rgba(255,255,255,0.6)" stroke="rgba(197,138,149,0.35)"/>
    <g>
      <rect x="10"  y="10"  width="40" height="40" fill="#f4c7cb"/>
      <rect x="60"  y="10"  width="40" height="40" fill="#e8a6b0"/>
      <rect x="110" y="10"  width="40" height="40" fill="#dccae6"/>
      <rect x="160" y="10"  width="40" height="40" fill="#cde0ee"/>
      <rect x="210" y="10"  width="40" height="40" fill="#c9e3d0"/>
      <rect x="10"  y="60"  width="40" height="40" fill="#f7d9b6"/>
      <rect x="60"  y="60"  width="40" height="40" fill="#e9d8b6"/>
      <rect x="110" y="60"  width="40" height="40" fill="#b89bc6"/>
      <rect x="160" y="60"  width="40" height="40" fill="#c58a95"/>
      <rect x="210" y="60"  width="40" height="40" fill="#f4c7cb"/>
      <rect x="10"  y="110" width="40" height="40" fill="#cde0ee"/>
      <rect x="60"  y="110" width="40" height="40" fill="#c9e3d0"/>
      <rect x="110" y="110" width="40" height="40" fill="#f7d9b6"/>
      <rect x="160" y="110" width="40" height="40" fill="#dccae6"/>
      <rect x="210" y="110" width="40" height="40" fill="#e8a6b0"/>
      <rect x="10"  y="160" width="40" height="40" fill="#b89bc6"/>
      <rect x="60"  y="160" width="40" height="40" fill="#f4c7cb"/>
      <rect x="110" y="160" width="40" height="40" fill="#c9e3d0"/>
      <rect x="160" y="160" width="40" height="40" fill="#f7d9b6"/>
      <rect x="210" y="160" width="40" height="40" fill="#cde0ee"/>
      <rect x="10"  y="210" width="40" height="40" fill="#dccae6"/>
      <rect x="60"  y="210" width="40" height="40" fill="#c58a95"/>
      <rect x="110" y="210" width="40" height="40" fill="#e8a6b0"/>
      <rect x="160" y="210" width="40" height="40" fill="#c9e3d0"/>
      <rect x="210" y="210" width="40" height="40" fill="#b89bc6"/>
    </g>
    <g stroke="rgba(91,58,69,0.55)" stroke-width="3" stroke-linecap="round">
      <line x1="14"  y1="14"  x2="46"  y2="46"/> <line x1="46"  y1="14"  x2="14"  y2="46"/>
      <line x1="64"  y1="14"  x2="96"  y2="46"/> <line x1="96"  y1="14"  x2="64"  y2="46"/>
      <line x1="114" y1="14"  x2="146" y2="46"/> <line x1="146" y1="14"  x2="114" y2="46"/>
      <line x1="164" y1="14"  x2="196" y2="46"/> <line x1="196" y1="14"  x2="164" y2="46"/>
      <line x1="214" y1="14"  x2="246" y2="46"/> <line x1="246" y1="14"  x2="214" y2="46"/>
      <line x1="14"  y1="64"  x2="46"  y2="96"/> <line x1="46"  y1="64"  x2="14"  y2="96"/>
      <line x1="64"  y1="64"  x2="96"  y2="96"/> <line x1="96"  y1="64"  x2="64"  y2="96"/>
      <line x1="114" y1="64"  x2="146" y2="96"/> <line x1="146" y1="64"  x2="114" y2="96"/>
      <line x1="164" y1="64"  x2="196" y2="96"/> <line x1="196" y1="64"  x2="164" y2="96"/>
      <line x1="214" y1="64"  x2="246" y2="96"/> <line x1="246" y1="64"  x2="214" y2="96"/>
    </g>
  </g>

  <text x="80" y="595" font-family="'Nunito', 'Segoe UI', system-ui, sans-serif" font-size="22" font-weight="600" fill="#9b6b76" letter-spacing="2">theinsomnolent.github.io/CosyCrossStitch</text>
</svg>